<?xml version="1.0" encoding="utf-8"?>
<!-- Generator: Adobe Illustrator 27.9.0, SVG Export Plug-In . SVG Version: 6.00 Build 0)  -->
<svg version="1.1" id="Layer_1" xmlns="http://www.w3.org/2000/svg" xmlns:xlink="http://www.w3.org/1999/xlink" x="0px" y="0px"
	 viewBox="0 0 125 125" style="enable-background:new 0 0 125 125;" xml:space="preserve">
<style type="text/css">
	.st0{display:none;}
	.st1{display:inline;}
	.st2{fill:#FFFFFF;}
</style>
<g id="Layer_1_00000031923564945671044600000008778937018658006207_">
</g>
<g id="Layer_2_00000085963986389225034190000017584843325116166547_" class="st0">
	<polygon class="st1" points="-38.7,50.5 -47.7,41.5 -60.2,54 -72.7,41.5 -81.7,50.5 -69.2,63 -81.7,75.5 -72.7,84.5 -60.2,72 
		-47.7,84.5 -38.7,75.5 -51.2,63 	"/>
</g>
<g id="Layer_3" class="st0">
	<polygon class="st1" points="-44,43.5 -68,67.5 -77.3,58.1 -84.6,65.5 -68,82.1 -36.7,50.8 	"/>
</g>
<g id="Layer_4" class="st0">
	<g class="st1">
		<path d="M-39.7,46.5l-5-5l-16,16l-16-16l-5,5l16,16l-16,16l5,5l16-16l16,16l5-5l-16-16L-39.7,46.5z"/>
	</g>
</g>
<g id="Layer_5_00000123404549456908781330000007722634169406889907_">
	<g>
		<path class="st2" d="M100.4,25.5L51.2,74.7L24.6,48L12.5,59.9l38.8,38.7l61.2-61L100.4,25.5z"/>
	</g>
</g>
</svg>
