<?xml version="1.0" encoding="utf-8"?>
<!-- Generator: Adobe Illustrator 27.9.0, SVG Export Plug-In . SVG Version: 6.00 Build 0)  -->
<svg version="1.1" id="Layer_1" xmlns="http://www.w3.org/2000/svg" xmlns:xlink="http://www.w3.org/1999/xlink" x="0px" y="0px"
	 viewBox="0 0 125 125" style="enable-background:new 0 0 125 125;" xml:space="preserve">
<style type="text/css">
	.st0{display:none;}
	.st1{display:inline;}
	.st2{fill:#FFFFFF;}
</style>
<g id="Layer_1_00000145738090411775637570000007608710206014815886_">
</g>
<g id="Layer_2_00000052811853180127410210000009147901976575319199_" class="st0">
	<polygon class="st1" points="-43.2,50.5 -52.2,41.5 -64.7,54 -77.2,41.5 -86.2,50.5 -73.7,63 -86.2,75.5 -77.2,84.5 -64.7,72 
		-52.2,84.5 -43.2,75.5 -55.7,63 	"/>
</g>
<g id="Layer_3" class="st0">
	<polygon class="st1" points="-48.5,43.5 -72.5,67.5 -81.8,58.1 -89.1,65.5 -72.5,82.1 -41.2,50.8 	"/>
</g>
<g id="Layer_4_00000083059430679324976790000011439768027085403837_">
	<g>
		<path class="st2" d="M112.5,24.4l-11.9-11.9L62.5,50.6L24.4,12.5L12.5,24.4l38.1,38.1l-38.1,38.1l11.9,11.9l38.1-38.1l38.1,38.1
			l11.9-11.9L74.4,62.5L112.5,24.4z"/>
	</g>
</g>
<g id="Layer_5" class="st0">
	<g class="st1">
		<path d="M-47,44.5l-23.6,23.6l-12.8-12.8l-5.8,5.7l18.6,18.6l29.4-29.3L-47,44.5z"/>
	</g>
</g>
</svg>
