<?xml version="1.0" encoding="utf-8"?>
<!-- Generator: Adobe Illustrator 25.4.1, SVG Export Plug-In . SVG Version: 6.00 Build 0)  -->
<svg version="1.1" xmlns="http://www.w3.org/2000/svg" xmlns:xlink="http://www.w3.org/1999/xlink" x="0px" y="0px"
	 viewBox="0 0 64 64" style="enable-background:new 0 0 64 64;" xml:space="preserve">
<style type="text/css">
	.st0{display:none;}
	.st1{display:inline;}
</style>
<g id="Layer_1">
</g>
<g id="Layer_2" class="st0">
	<polygon class="st1" points="54,20 45,11 32.5,23.5 20,11 11,20 23.5,32.5 11,45 20,54 32.5,41.5 45,54 54,45 41.5,32.5 	"/>
</g>
<g id="Layer_3" class="st0">
	<polygon class="st1" points="48.7,13 24.7,37 15.4,27.6 8.1,35 24.7,51.6 56,20.3 	"/>
</g>
<g id="Layer_4">
	<g>
		<path d="M53,16l-5-5L32,27L16,11l-5,5l16,16L11,48l5,5l16-16l16,16l5-5L37,32L53,16z"/>
	</g>
</g>
<g id="Layer_5" class="st0">
	<g class="st1">
		<path d="M50.2,14L26.6,37.6L13.8,24.8L8,30.5l18.6,18.6L56,19.8L50.2,14z"/>
	</g>
</g>
</svg>
